<?xml version="1.0" encoding="UTF-8"?>
<!DOCTYPE svg PUBLIC "-//W3C//DTD SVG 1.1//EN" "http://www.w3.org/Graphics/SVG/1.1/DTD/svg11.dtd">
<svg xmlns="http://www.w3.org/2000/svg" version="1.1" width="100px" height="100px" style="shape-rendering:geometricPrecision; text-rendering:geometricPrecision; image-rendering:optimizeQuality; fill-rule:evenodd; clip-rule:evenodd" xmlns:xlink="http://www.w3.org/1999/xlink">
<g><path style="opacity:0.971" fill="#c3c3c3" d="M 39.5,3.5 C 68.3969,0.0171771 87.2302,12.0172 96,39.5C 99.9698,68.4145 88.1365,87.2479 60.5,96C 31.5855,99.9698 12.7521,88.1365 4,60.5C 0.188844,31.5245 12.0222,12.5245 39.5,3.5 Z"/></g>
<g><path style="opacity:1" fill="#fefefe" d="M 46.5,19.5 C 51.1813,18.4564 54.348,20.1231 56,24.5C 62.3706,41.4038 68.8706,58.2371 75.5,75C 73.9056,78.4547 71.4056,79.288 68,77.5C 66.0246,71.904 63.858,66.404 61.5,61C 53.4792,60.1684 45.4792,60.3351 37.5,61.5C 35.5,66.5 33.5,71.5 31.5,76.5C 29.1827,78.7914 27.016,78.7914 25,76.5C 25.0154,73.4302 25.6821,70.4302 27,67.5C 33.0277,51.2367 39.5277,35.2367 46.5,19.5 Z"/></g>
<g><path style="opacity:1" fill="#c3c3c3" d="M 49.5,28.5 C 52.8064,36.7336 56.1398,45.067 59.5,53.5C 53.2015,54.4963 46.8682,54.8297 40.5,54.5C 43.493,45.8438 46.493,37.1771 49.5,28.5 Z"/></g>
</svg>
