<?xml version="1.0" encoding="UTF-8"?>
<!DOCTYPE svg PUBLIC "-//W3C//DTD SVG 1.1//EN" "http://www.w3.org/Graphics/SVG/1.1/DTD/svg11.dtd">
<svg xmlns="http://www.w3.org/2000/svg" version="1.1" width="500px" height="500px" style="shape-rendering:geometricPrecision; text-rendering:geometricPrecision; image-rendering:optimizeQuality; fill-rule:evenodd; clip-rule:evenodd" xmlns:xlink="http://www.w3.org/1999/xlink">
<g><path style="opacity:0.972" fill="#c4c4c4" d="M 297.5,13.5 C 306.632,16.7027 316.298,19.2027 326.5,21C 326.957,21.414 327.291,21.914 327.5,22.5C 332.065,24.2101 336.731,25.7101 341.5,27C 341.167,27.3333 340.833,27.6667 340.5,28C 346.294,30.29 352.294,32.29 358.5,34C 359.833,34.6667 359.833,35.3333 358.5,36C 364.103,37.625 368.77,39.7917 372.5,42.5C 373.547,45.1242 375.213,45.9575 377.5,45C 377.167,45.3333 376.833,45.6667 376.5,46C 384.33,49.8187 391.663,54.4854 398.5,60C 424.045,81.3198 445.045,105.82 461.5,133.5C 466.068,142.636 470.568,151.636 475,160.5C 475.526,164.662 476.526,168.662 478,172.5C 478.667,173.167 479.333,173.833 480,174.5C 480.333,177.167 480.667,179.833 481,182.5C 481.333,181.833 481.667,181.167 482,180.5C 482.333,183.5 482.667,186.5 483,189.5C 484.605,194.496 486.271,199.496 488,204.5C 491.333,236.167 491.333,267.833 488,299.5C 484.311,314.869 479.978,329.536 475,343.5C 470.489,352.374 465.989,361.374 461.5,370.5C 459.325,372.982 457.325,375.648 455.5,378.5C 453.365,383.759 450.032,388.759 445.5,393.5C 444.253,395.323 443.586,397.323 443.5,399.5C 442.325,399.281 441.325,399.614 440.5,400.5C 430.929,414.073 419.596,426.073 406.5,436.5C 407.629,438.529 407.129,438.863 405,437.5C 403.736,439.607 401.903,440.607 399.5,440.5C 399.719,441.675 399.386,442.675 398.5,443.5C 395.1,445.856 391.767,448.189 388.5,450.5C 387.025,452.41 385.025,453.576 382.5,454C 381.833,455 381.167,456 380.5,457C 373.44,461.197 366.107,464.863 358.5,468C 358.833,468.333 359.167,468.667 359.5,469C 354.721,470.226 350.387,472.226 346.5,475C 344.5,475.333 342.5,475.667 340.5,476C 340.833,476.333 341.167,476.667 341.5,477C 338.367,476.954 335.7,477.954 333.5,480C 325.625,482.483 317.625,484.65 309.5,486.5C 309.291,487.086 308.957,487.586 308.5,488C 299.016,488.971 289.683,490.638 280.5,493C 259.5,493.667 238.5,493.667 217.5,493C 202.218,490.256 187.218,486.923 172.5,483C 170.699,482.683 170.366,482.016 171.5,481C 168.044,481.093 165.044,480.093 162.5,478C 160.5,477.667 158.5,477.333 156.5,477C 156.833,476.667 157.167,476.333 157.5,476C 155.5,475.667 153.5,475.333 151.5,475C 147.613,472.226 143.279,470.226 138.5,469C 138.833,468.667 139.167,468.333 139.5,468C 136.244,466.498 132.911,465.165 129.5,464C 129.833,463.667 130.167,463.333 130.5,463C 128.744,462.798 127.078,462.298 125.5,461.5C 121.825,459.044 118.325,456.378 115,453.5C 111.896,453.257 109.73,451.757 108.5,449C 93.37,439.299 80.0367,427.466 68.5,413.5C 62.1323,407.222 56.299,399.888 51,391.5C 43.8149,382.689 37.8149,372.689 33,361.5C 32.6667,361.833 32.3333,362.167 32,362.5C 31.6667,360.833 31.3333,359.167 31,357.5C 29.1819,354.538 27.3485,351.538 25.5,348.5C 25.7093,347.914 26.0426,347.414 26.5,347C 24.545,343.584 22.7117,340.084 21,336.5C 19.1365,328.743 16.9699,321.077 14.5,313.5C 13.914,313.291 13.414,312.957 13,312.5C 11.9622,301.272 9.9622,290.272 7,279.5C 6.33333,261.167 6.33333,242.833 7,224.5C 9.9622,213.728 11.9622,202.728 13,191.5C 13.414,191.043 13.914,190.709 14.5,190.5C 15.5983,184.684 16.9316,179.017 18.5,173.5C 21.2333,168.192 23.9,162.692 26.5,157C 26.0426,156.586 25.7093,156.086 25.5,155.5C 31.6127,142.663 38.946,129.83 47.5,117C 47.1667,116.667 46.8333,116.333 46.5,116C 52.4888,108.346 58.8221,101.013 65.5,94C 65.1667,93.6667 64.8333,93.3333 64.5,93C 72.4031,85.5527 80.0698,77.886 87.5,70C 94.6469,65.018 101.647,59.8514 108.5,54.5C 109.386,53.675 109.719,52.675 109.5,51.5C 110.873,51.6567 112.207,51.49 113.5,51C 115.895,48.6188 118.561,46.7854 121.5,45.5C 130.812,39.9845 140.812,34.4845 151.5,29C 158.272,27.4767 165.272,24.81 172.5,21C 182.648,19.4667 191.981,17.3001 200.5,14.5C 199.494,13.6043 199.494,12.9377 200.5,12.5C 202.608,13.1018 204.775,13.4351 207,13.5C 210.193,12.6667 213.693,11.8334 217.5,11C 238.5,10.3333 259.5,10.3333 280.5,11C 282.5,11.3333 284.5,11.6667 286.5,12C 286.167,12.3333 285.833,12.6667 285.5,13C 289.486,13.4988 293.486,13.6655 297.5,13.5 Z"/></g>
<g><path style="opacity:0.004" fill="#c3c4c3" d="M 297.5,12.5 C 298.833,13.1667 298.833,13.1667 297.5,12.5 Z"/></g>
<g><path style="opacity:0.004" fill="#c3c4c3" d="M 121.5,45.5 C 120.833,44.1667 120.833,44.1667 121.5,45.5 Z"/></g>
<g><path style="opacity:1" fill="#d5d5d5" d="M 312.5,86.5 C 303.5,86.5 294.5,86.5 285.5,86.5C 289.614,85.1739 294.114,84.5073 299,84.5C 303.886,84.5073 308.386,85.1739 312.5,86.5 Z"/></g>
<g><path style="opacity:1" fill="#bdbdbd" d="M 313.5,85.5 C 323.839,85.3335 334.172,85.5002 344.5,86C 334.632,86.2033 324.799,86.7033 315,87.5C 313.97,87.1639 313.47,86.4972 313.5,85.5 Z"/></g>
<g><path style="opacity:1" fill="#fefefe" d="M 285.5,86.5 C 294.5,86.5 303.5,86.5 312.5,86.5C 312.5,87.1667 312.5,87.8333 312.5,88.5C 323.068,89.1879 333.735,89.8546 344.5,90.5C 344.5,91.1667 344.833,91.5 345.5,91.5C 345.82,109.91 345.486,128.243 344.5,146.5C 344.5,146.833 344.5,147.167 344.5,147.5C 327.735,148.153 311.069,148.82 294.5,149.5C 293.662,149.842 293.328,150.508 293.5,151.5C 291.901,151.232 290.568,151.566 289.5,152.5C 287.227,152.957 285.894,154.29 285.5,156.5C 283.972,157.802 282.972,159.469 282.5,161.5C 281.504,161.414 280.671,161.748 280,162.5C 279.333,181.833 279.333,201.167 280,220.5C 300.76,221.327 321.594,221.827 342.5,222C 341.944,222.383 341.611,222.883 341.5,223.5C 340.833,230.167 340.167,236.833 339.5,243.5C 337.797,250.506 336.797,257.84 336.5,265.5C 335.511,270.975 335.178,276.642 335.5,282.5C 316.992,282.17 298.659,282.503 280.5,283.5C 279.501,337.331 279.168,391.331 279.5,445.5C 257.5,445.5 235.5,445.5 213.5,445.5C 213.832,391.331 213.499,337.331 212.5,283.5C 194.341,282.503 176.008,282.17 157.5,282.5C 157.5,262.167 157.5,241.833 157.5,221.5C 176.076,221.826 194.576,221.493 213,220.5C 213.5,197.836 213.667,175.169 213.5,152.5C 213.5,152.167 213.5,151.833 213.5,151.5C 214.952,147.993 216.285,144.326 217.5,140.5C 218.255,137.947 218.922,135.28 219.5,132.5C 220.682,129.625 221.849,126.625 223,123.5C 223.671,122.748 224.504,122.414 225.5,122.5C 226.344,120.157 227.344,117.824 228.5,115.5C 229.239,115.631 229.906,115.464 230.5,115C 233.087,112.919 235.087,110.419 236.5,107.5C 238.71,107.106 240.043,105.773 240.5,103.5C 243.015,103.231 245.015,102.231 246.5,100.5C 247.5,100.167 248.167,99.5 248.5,98.5C 250.306,97.9759 251.972,97.3092 253.5,96.5C 256.162,94.7319 259.162,94.0653 262.5,94.5C 262.5,93.5 262.5,92.5 262.5,91.5C 265.059,91.8016 267.393,91.4682 269.5,90.5C 274.935,89.8765 280.268,89.2099 285.5,88.5C 285.5,87.8333 285.5,87.1667 285.5,86.5 Z"/></g>
<g><path style="opacity:1" fill="#ededed" d="M 285.5,88.5 C 280.268,89.2099 274.935,89.8765 269.5,90.5C 274.396,88.5539 279.729,87.8872 285.5,88.5 Z"/></g>
<g><path style="opacity:1" fill="#efefef" d="M 312.5,88.5 C 323.552,87.8572 334.219,88.5238 344.5,90.5C 333.735,89.8546 323.068,89.1879 312.5,88.5 Z"/></g>
<g><path style="opacity:1" fill="#c0c0c0" d="M 348.5,91.5 C 349.832,100.141 350.498,109.141 350.5,118.5C 350.656,127.989 350.156,137.323 349,146.5C 348.5,128.17 348.333,109.836 348.5,91.5 Z"/></g>
<g><path style="opacity:1" fill="#e4e4e4" d="M 262.5,91.5 C 262.5,92.5 262.5,93.5 262.5,94.5C 259.162,94.0653 256.162,94.7319 253.5,96.5C 252.167,96.5 250.833,96.5 249.5,96.5C 253.688,94.5599 258.021,92.8932 262.5,91.5 Z"/></g>
<g><path style="opacity:1" fill="#efefef" d="M 345.5,91.5 C 346.166,100.494 346.5,109.66 346.5,119C 346.498,128.525 345.832,137.692 344.5,146.5C 345.486,128.243 345.82,109.91 345.5,91.5 Z"/></g>
<g><path style="opacity:1" fill="#ebebeb" d="M 249.5,96.5 C 250.833,96.5 252.167,96.5 253.5,96.5C 251.972,97.3092 250.306,97.9759 248.5,98.5C 248.328,97.5084 248.662,96.8417 249.5,96.5 Z"/></g>
<g><path style="opacity:1" fill="#e1e1e1" d="M 248.5,98.5 C 248.167,99.5 247.5,100.167 246.5,100.5C 246.5,99.1667 247.167,98.5 248.5,98.5 Z"/></g>
<g><path style="opacity:1" fill="#e7e7e7" d="M 246.5,100.5 C 245.015,102.231 243.015,103.231 240.5,103.5C 241.985,101.769 243.985,100.769 246.5,100.5 Z"/></g>
<g><path style="opacity:1" fill="#e5e5e5" d="M 240.5,103.5 C 240.043,105.773 238.71,107.106 236.5,107.5C 237.402,105.659 238.736,104.326 240.5,103.5 Z"/></g>
<g><path style="opacity:1" fill="#e8e8e8" d="M 236.5,107.5 C 235.087,110.419 233.087,112.919 230.5,115C 229.906,115.464 229.239,115.631 228.5,115.5C 230.694,112.395 233.36,109.728 236.5,107.5 Z"/></g>
<g><path style="opacity:1" fill="#eeeeee" d="M 228.5,115.5 C 227.344,117.824 226.344,120.157 225.5,122.5C 224.908,119.369 225.908,117.036 228.5,115.5 Z"/></g>
<g><path style="opacity:1" fill="#ebebeb" d="M 219.5,132.5 C 218.922,135.28 218.255,137.947 217.5,140.5C 217.5,138.167 217.5,135.833 217.5,133.5C 217.842,132.662 218.508,132.328 219.5,132.5 Z"/></g>
<g><path style="opacity:1" fill="#d5d5d5" d="M 217.5,133.5 C 217.5,135.833 217.5,138.167 217.5,140.5C 216.285,144.326 214.952,147.993 213.5,151.5C 213.5,147.833 213.5,144.167 213.5,140.5C 214.5,140.5 215.5,140.5 216.5,140.5C 216.198,137.941 216.532,135.607 217.5,133.5 Z"/></g>
<g><path style="opacity:1" fill="#e3e3e3" d="M 344.5,147.5 C 344.672,148.492 344.338,149.158 343.5,149.5C 327.167,149.5 310.833,149.5 294.5,149.5C 311.069,148.82 327.735,148.153 344.5,147.5 Z"/></g>
<g><path style="opacity:1" fill="#cccccc" d="M 294.5,149.5 C 310.833,149.5 327.167,149.5 343.5,149.5C 343.5,149.833 343.5,150.167 343.5,150.5C 326.991,150.17 310.658,150.504 294.5,151.5C 294.167,151.5 293.833,151.5 293.5,151.5C 293.328,150.508 293.662,149.842 294.5,149.5 Z"/></g>
<g><path style="opacity:1" fill="#bebebe" d="M 343.5,150.5 C 344.738,150.81 344.738,151.31 343.5,152C 326.995,152.828 310.661,152.662 294.5,151.5C 310.658,150.504 326.991,150.17 343.5,150.5 Z"/></g>
<g><path style="opacity:1" fill="#bfbfbf" d="M 209.5,151.5 C 210.497,173.66 210.831,195.994 210.5,218.5C 192.497,218.667 174.497,218.5 156.5,218C 173.679,216.515 191.013,216.015 208.5,216.5C 208.178,194.758 208.512,173.091 209.5,151.5 Z"/></g>
<g><path style="opacity:1" fill="#d6d6d6" d="M 289.5,152.5 C 289.106,154.71 287.773,156.043 285.5,156.5C 285.894,154.29 287.227,152.957 289.5,152.5 Z"/></g>
<g><path style="opacity:1" fill="#dcdcdc" d="M 213.5,151.5 C 213.5,151.833 213.5,152.167 213.5,152.5C 212.833,174.833 212.167,197.167 211.5,219.5C 210.844,196.475 211.51,173.809 213.5,151.5 Z"/></g>
<g><path style="opacity:1" fill="#d3d3d3" d="M 285.5,156.5 C 285.231,159.015 284.231,161.015 282.5,162.5C 282.5,162.167 282.5,161.833 282.5,161.5C 282.972,159.469 283.972,157.802 285.5,156.5 Z"/></g>
<g><path style="opacity:1" fill="#c0c0c0" d="M 281.5,163.5 C 282.5,163.5 283.5,163.5 284.5,163.5C 284.014,181.653 284.514,199.653 286,217.5C 295.592,216.839 305.259,216.506 315,216.5C 324.988,216.344 334.822,216.844 344.5,218C 323.503,218.5 302.503,218.667 281.5,218.5C 281.5,200.167 281.5,181.833 281.5,163.5 Z"/></g>
<g><path style="opacity:0.004" fill="#c3c4c3" d="M 18.5,173.5 C 17.475,173.103 17.3083,172.437 18,171.5C 18.4643,172.094 18.631,172.761 18.5,173.5 Z"/></g>
<g><path style="opacity:1" fill="#dadada" d="M 281.5,219.5 C 302.5,219.5 323.5,219.5 344.5,219.5C 344.737,220.791 344.404,221.791 343.5,222.5C 323.02,220.837 302.354,219.837 281.5,219.5 Z"/></g>
<g><path style="opacity:1" fill="#bfbfbf" d="M 155.5,220.5 C 155.5,241.5 155.5,262.5 155.5,283.5C 154.168,273.355 153.501,262.855 153.5,252C 153.501,241.145 154.168,230.645 155.5,220.5 Z"/></g>
<g><path style="opacity:1" fill="#f2f2f2" d="M 213.5,152.5 C 213.667,175.169 213.5,197.836 213,220.5C 194.576,221.493 176.076,221.826 157.5,221.5C 157.5,221.167 157.5,220.833 157.5,220.5C 175.674,220.83 193.674,220.497 211.5,219.5C 212.167,197.167 212.833,174.833 213.5,152.5 Z"/></g>
<g><path style="opacity:1" fill="#f2f2f2" d="M 282.5,161.5 C 282.5,161.833 282.5,162.167 282.5,162.5C 281.833,162.5 281.5,162.833 281.5,163.5C 280.167,182.167 280.167,200.833 281.5,219.5C 302.354,219.837 323.02,220.837 343.5,222.5C 343.158,223.338 342.492,223.672 341.5,223.5C 341.611,222.883 341.944,222.383 342.5,222C 321.594,221.827 300.76,221.327 280,220.5C 279.333,201.167 279.333,181.833 280,162.5C 280.671,161.748 281.504,161.414 282.5,161.5 Z"/></g>
<g><path style="opacity:1" fill="#d1d1d1" d="M 211.5,219.5 C 193.674,220.497 175.674,220.83 157.5,220.5C 156.503,241.327 156.169,262.327 156.5,283.5C 156.167,283.5 155.833,283.5 155.5,283.5C 155.5,262.5 155.5,241.5 155.5,220.5C 173.993,219.503 192.659,219.17 211.5,219.5 Z"/></g>
<g><path style="opacity:1" fill="#e8e8e8" d="M 341.5,223.5 C 342.128,230.913 341.461,237.913 339.5,244.5C 339.5,244.167 339.5,243.833 339.5,243.5C 340.167,236.833 340.833,230.167 341.5,223.5 Z"/></g>
<g><path style="opacity:1" fill="#bebebe" d="M 342.5,224.5 C 343.117,224.611 343.617,224.944 344,225.5C 344.83,231.528 344.664,237.528 343.5,243.5C 342.504,237.202 342.17,230.868 342.5,224.5 Z"/></g>
<g><path style="opacity:1" fill="#f2f2f2" d="M 339.5,243.5 C 339.5,243.833 339.5,244.167 339.5,244.5C 339.151,251.726 338.151,258.726 336.5,265.5C 336.797,257.84 337.797,250.506 339.5,243.5 Z"/></g>
<g><path style="opacity:1" fill="#bebebe" d="M 337.5,266.5 C 338.814,268.915 339.481,271.748 339.5,275C 339.167,277.833 338.833,280.667 338.5,283.5C 337.505,277.872 337.171,272.206 337.5,266.5 Z"/></g>
<g><path style="opacity:1" fill="#ebebeb" d="M 157.5,220.5 C 157.5,220.833 157.5,221.167 157.5,221.5C 157.5,241.833 157.5,262.167 157.5,282.5C 176.008,282.17 194.341,282.503 212.5,283.5C 212.5,283.833 212.5,284.167 212.5,284.5C 212.167,284.5 211.833,284.5 211.5,284.5C 193.341,283.503 175.008,283.17 156.5,283.5C 156.169,262.327 156.503,241.327 157.5,220.5 Z"/></g>
<g><path style="opacity:1" fill="#ececec" d="M 336.5,265.5 C 336.5,271.5 336.5,277.5 336.5,283.5C 317.992,283.17 299.659,283.503 281.5,284.5C 281.167,284.5 280.833,284.5 280.5,284.5C 280.5,284.167 280.5,283.833 280.5,283.5C 298.659,282.503 316.992,282.17 335.5,282.5C 335.178,276.642 335.511,270.975 336.5,265.5 Z"/></g>
<g><path style="opacity:1" fill="#bfbfbf" d="M 207.5,284.5 C 208.5,284.5 209.5,284.5 210.5,284.5C 210.5,338.5 210.5,392.5 210.5,446.5C 210.19,447.738 209.69,447.738 209,446.5C 208.5,393.501 208.333,340.501 208.5,287.5C 191.072,287.972 173.739,287.472 156.5,286C 173.672,285.832 190.672,285.332 207.5,284.5 Z"/></g>
<g><path style="opacity:1" fill="#bfbfbf" d="M 281.5,284.5 C 299.802,285.294 318.136,285.794 336.5,286C 319.321,287.485 301.987,287.985 284.5,287.5C 284.833,340.837 284.5,394.171 283.5,447.5C 282.833,393.668 282.167,340.002 281.5,286.5C 281.5,285.833 281.5,285.167 281.5,284.5 Z"/></g>
<g><path style="opacity:1" fill="#dcdcdc" d="M 211.5,284.5 C 211.833,284.5 212.167,284.5 212.5,284.5C 212.168,338.669 212.501,392.669 213.5,446.5C 213.5,446.833 213.5,447.167 213.5,447.5C 212.508,447.672 211.842,447.338 211.5,446.5C 211.5,392.5 211.5,338.5 211.5,284.5 Z"/></g>
<g><path style="opacity:1" fill="#cacaca" d="M 156.5,283.5 C 175.008,283.17 193.341,283.503 211.5,284.5C 211.5,338.5 211.5,392.5 211.5,446.5C 211.167,446.5 210.833,446.5 210.5,446.5C 210.5,392.5 210.5,338.5 210.5,284.5C 209.5,284.5 208.5,284.5 207.5,284.5C 190.325,284.83 173.325,284.497 156.5,283.5 Z"/></g>
<g><path style="opacity:1" fill="#f5f5f5" d="M 212.5,283.5 C 213.499,337.331 213.832,391.331 213.5,445.5C 235.5,445.5 257.5,445.5 279.5,445.5C 279.168,391.331 279.501,337.331 280.5,283.5C 280.5,283.833 280.5,284.167 280.5,284.5C 280.5,338.5 280.5,392.5 280.5,446.5C 258.167,446.5 235.833,446.5 213.5,446.5C 212.501,392.669 212.168,338.669 212.5,284.5C 212.5,284.167 212.5,283.833 212.5,283.5 Z"/></g>
<g><path style="opacity:1" fill="#dfdfdf" d="M 280.5,284.5 C 280.833,284.5 281.167,284.5 281.5,284.5C 281.5,285.167 281.5,285.833 281.5,286.5C 281.5,340.167 281.5,393.833 281.5,447.5C 258.833,447.5 236.167,447.5 213.5,447.5C 213.5,447.167 213.5,446.833 213.5,446.5C 235.833,446.5 258.167,446.5 280.5,446.5C 280.5,392.5 280.5,338.5 280.5,284.5 Z"/></g>
<g><path style="opacity:1" fill="#bfbfbf" d="M 212.5,448.5 C 235.502,448.333 258.502,448.5 281.5,449C 269.986,450.158 258.319,450.658 246.5,450.5C 234.813,450.499 223.48,449.832 212.5,448.5 Z"/></g>
<g><path style="opacity:0.004" fill="#c3c4c3" d="M 388.5,450.5 C 389.833,451.167 389.833,451.167 388.5,450.5 Z"/></g>
<g><path style="opacity:0.004" fill="#c3c4c3" d="M 298.5,490.5 C 299.833,491.167 299.833,491.167 298.5,490.5 Z"/></g>
</svg>
