<?xml version="1.0" encoding="UTF-8"?>
<!DOCTYPE svg PUBLIC "-//W3C//DTD SVG 1.1//EN" "http://www.w3.org/Graphics/SVG/1.1/DTD/svg11.dtd">
<svg xmlns="http://www.w3.org/2000/svg" version="1.1" width="504px" height="504px" style="shape-rendering:geometricPrecision; text-rendering:geometricPrecision; image-rendering:optimizeQuality; fill-rule:evenodd; clip-rule:evenodd" xmlns:xlink="http://www.w3.org/1999/xlink">
<g><path style="opacity:0.985" fill="#c4c4c4" d="M 160.5,-0.5 C 221.167,-0.5 281.833,-0.5 342.5,-0.5C 447.833,1.5 501.5,55.1667 503.5,160.5C 503.5,221.167 503.5,281.833 503.5,342.5C 501.5,447.833 447.833,501.5 342.5,503.5C 281.833,503.5 221.167,503.5 160.5,503.5C 55.1667,501.5 1.5,447.833 -0.5,342.5C -0.5,281.833 -0.5,221.167 -0.5,160.5C 1.5,55.1667 55.1667,1.5 160.5,-0.5 Z M 174.5,45.5 C 225.834,45.3333 277.168,45.5 328.5,46C 350.142,45.6919 371.476,48.0252 392.5,53C 428.328,65.5102 448.828,90.6768 454,128.5C 454.887,135.144 455.554,141.811 456,148.5C 458,217.167 458,285.833 456,354.5C 453.5,419.667 419.667,453.5 354.5,456C 285.833,458 217.167,458 148.5,456C 121.373,456.182 97.3726,447.848 76.5,431C 62.2926,417.089 53.4592,400.256 50,380.5C 47.3422,363.273 46.0089,345.94 46,328.5C 45.3333,277.167 45.3333,225.833 46,174.5C 45.6919,152.858 48.0252,131.524 53,110.5C 64.6206,77.221 87.7873,57.0544 122.5,50C 139.902,47.5047 157.235,46.0047 174.5,45.5 Z M 239.5,168.5 C 281.267,165.624 311.101,182.958 329,220.5C 342.432,263.206 330.932,297.372 294.5,323C 254.029,343.338 218.195,337.172 187,304.5C 167.516,278.924 163.183,250.924 174,220.5C 187.115,192.044 208.949,174.71 239.5,168.5 Z"/></g>
<g><path style="opacity:0.97" fill="#c4c4c4" d="M 378.5,86.5 C 397.124,84.3873 409.624,92.0539 416,109.5C 418.843,128.302 411.343,140.802 393.5,147C 374.698,149.843 362.198,142.343 356,124.5C 353.369,105.669 360.869,93.0021 378.5,86.5 Z"/></g>
<g><path style="opacity:0.979" fill="#c4c4c4" d="M 241.5,121.5 C 306.516,120.724 351.016,150.39 375,210.5C 390.259,266.041 376.759,313.208 334.5,352C 297.173,380.557 255.84,388.223 210.5,375C 158.174,355.003 128.674,317.17 122,261.5C 119.806,207.379 141.64,166.212 187.5,138C 204.582,129.069 222.582,123.569 241.5,121.5 Z M 239.5,168.5 C 208.949,174.71 187.115,192.044 174,220.5C 163.183,250.924 167.516,278.924 187,304.5C 218.195,337.172 254.029,343.338 294.5,323C 330.932,297.372 342.432,263.206 329,220.5C 311.101,182.958 281.267,165.624 239.5,168.5 Z"/></g>
</svg>
