<?xml version="1.0" encoding="UTF-8"?>
<!DOCTYPE svg PUBLIC "-//W3C//DTD SVG 1.1//EN" "http://www.w3.org/Graphics/SVG/1.1/DTD/svg11.dtd">
<svg xmlns="http://www.w3.org/2000/svg" version="1.1" width="500px" height="500px" style="shape-rendering:geometricPrecision; text-rendering:geometricPrecision; image-rendering:optimizeQuality; fill-rule:evenodd; clip-rule:evenodd" xmlns:xlink="http://www.w3.org/1999/xlink">
<g><path style="opacity:0.982" fill="#c4c4c4" d="M 225.5,11.5 C 328.85,6.37168 407.184,47.3717 460.5,134.5C 460.291,135.086 459.957,135.586 459.5,136C 463.623,142.16 467.29,148.66 470.5,155.5C 489.822,204.418 493.988,255.085 483,307.5C 461.438,386.768 412.272,442.268 335.5,474C 258.573,500.279 186.24,492.446 118.5,450.5C 56.9839,407.855 21.4839,349.521 12,275.5C 6.00452,187.931 36.1712,116.598 102.5,61.5C 131.82,39.8389 164.154,24.6723 199.5,16C 207.797,14.7078 216.13,13.7078 224.5,13C 225.056,12.6174 225.389,12.1174 225.5,11.5 Z"/></g>
<g><path style="opacity:1" fill="#fefefe" d="M 424.5,130.5 C 422.654,132.03 421.654,134.03 421.5,136.5C 416.334,145.342 409.667,153.009 401.5,159.5C 399.804,159.685 398.471,160.519 397.5,162C 399.066,162.765 400.399,162.598 401.5,161.5C 403.5,161.5 405.5,161.5 407.5,161.5C 410.01,161.073 412.343,160.407 414.5,159.5C 421.567,157.342 428.567,154.675 435.5,151.5C 435.833,151.833 436.167,152.167 436.5,152.5C 426.709,167.09 414.875,179.757 401,190.5C 401.55,259.203 376.383,316.37 325.5,362C 304.954,378.526 282.121,391.026 257,399.5C 246.024,402.746 234.858,405.079 223.5,406.5C 219.358,407.04 215.358,407.706 211.5,408.5C 163.581,412.662 119.581,401.995 79.5,376.5C 88.4329,376.77 97.4329,376.437 106.5,375.5C 117.589,375.064 128.256,373.064 138.5,369.5C 141.01,369.946 143.01,369.28 144.5,367.5C 159.231,363.088 172.564,356.088 184.5,346.5C 161.873,343.94 143.373,333.94 129,316.5C 125.614,310.95 122.447,305.283 119.5,299.5C 118.472,297.44 118.472,295.44 119.5,293.5C 120.107,293.624 120.44,293.957 120.5,294.5C 124.486,295.166 128.653,295.499 133,295.5C 137.557,295.491 141.724,294.825 145.5,293.5C 146.376,293.631 147.043,293.298 147.5,292.5C 117.777,283.279 99.7773,263.613 93.5,233.5C 92.9031,228.706 93.5698,224.373 95.5,220.5C 100.175,223.281 105.175,225.281 110.5,226.5C 113.656,227.434 116.989,228.101 120.5,228.5C 121.552,228.649 122.552,228.483 123.5,228C 96.2724,206.612 87.1057,179.112 96,145.5C 97.6117,141.942 98.945,138.275 100,134.5C 101.019,133.313 102.186,132.313 103.5,131.5C 117.456,146.976 132.79,160.81 149.5,173C 167.756,184.296 187.089,193.13 207.5,199.5C 212.967,201.272 218.634,202.605 224.5,203.5C 230.81,204.679 237.143,205.679 243.5,206.5C 247.019,207.808 250.685,207.808 254.5,206.5C 254.376,205.893 254.043,205.56 253.5,205.5C 248.8,176.934 257.133,153.101 278.5,134C 304.82,114.395 332.82,111.728 362.5,126C 367.813,129.65 372.813,133.65 377.5,138C 378.873,138.875 380.373,139.375 382,139.5C 397.557,136.469 412.057,130.803 425.5,122.5C 426.713,125.418 426.379,128.085 424.5,130.5 Z"/></g>
<g><path style="opacity:1" fill="#d8d8d8" d="M 424.5,130.5 C 424.346,132.97 423.346,134.97 421.5,136.5C 421.654,134.03 422.654,132.03 424.5,130.5 Z"/></g>
<g><path style="opacity:1" fill="#e5e5e5" d="M 414.5,159.5 C 412.343,160.407 410.01,161.073 407.5,161.5C 407.611,160.883 407.944,160.383 408.5,160C 410.473,159.505 412.473,159.338 414.5,159.5 Z"/></g>
<g><path style="opacity:1" fill="#d6d6d6" d="M 401.5,159.5 C 400.494,160.396 400.494,161.062 401.5,161.5C 400.399,162.598 399.066,162.765 397.5,162C 398.471,160.519 399.804,159.685 401.5,159.5 Z"/></g>
<g><path style="opacity:1" fill="#d7d7d7" d="M 207.5,199.5 C 213.638,199.588 219.304,200.921 224.5,203.5C 218.634,202.605 212.967,201.272 207.5,199.5 Z"/></g>
<g><path style="opacity:1" fill="#dedede" d="M 253.5,205.5 C 254.043,205.56 254.376,205.893 254.5,206.5C 250.685,207.808 247.019,207.808 243.5,206.5C 247.042,206.813 250.375,206.479 253.5,205.5 Z"/></g>
<g><path style="opacity:1" fill="#f0f0f0" d="M 95.5,220.5 C 93.5698,224.373 92.9031,228.706 93.5,233.5C 92.5139,229.03 92.1805,224.363 92.5,219.5C 93.791,219.263 94.791,219.596 95.5,220.5 Z"/></g>
<g><path style="opacity:1" fill="#d7d7d7" d="M 110.5,226.5 C 113.518,226.335 116.518,226.502 119.5,227C 120.056,227.383 120.389,227.883 120.5,228.5C 116.989,228.101 113.656,227.434 110.5,226.5 Z"/></g>
<g><path style="opacity:1" fill="#f0f0f0" d="M 145.5,293.5 C 141.724,294.825 137.557,295.491 133,295.5C 128.653,295.499 124.486,295.166 120.5,294.5C 128.888,294.773 137.221,294.44 145.5,293.5 Z"/></g>
<g><path style="opacity:1" fill="#dedede" d="M 144.5,367.5 C 143.01,369.28 141.01,369.946 138.5,369.5C 140.302,368.542 142.302,367.875 144.5,367.5 Z"/></g>
<g><path style="opacity:1" fill="#d6d6d6" d="M 106.5,375.5 C 97.4329,376.437 88.4329,376.77 79.5,376.5C 78.9569,376.44 78.6236,376.107 78.5,375.5C 79.6667,375.167 80.8333,374.833 82,374.5C 90.1409,375.388 98.3075,375.721 106.5,375.5 Z"/></g>
<g><path style="opacity:1" fill="#d6d6d6" d="M 223.5,406.5 C 219.971,408.423 215.971,409.089 211.5,408.5C 215.358,407.706 219.358,407.04 223.5,406.5 Z"/></g>
</svg>
